# xmcd CD database file
#
# Track frame offsets:
#	150
#	22631
#	39916
#	51286
#	64148
#	80954
#	101004
#	111451
#	121725
#	135742
#	150044
#
# Disc length: 2178 seconds
#
# Revision: 0
# Processed by: cddbd v1.5.2PL0 Copyright (c) Steve Scherf et al.
# Submitted via: CDex 1.70beta2
#
DISCID=8508800b
DTITLE=Red Sovine - Teddy Bear
DYEAR=1900
DGENRE=Country
TTITLE0=Teddy Bear
TTITLE1=Little Rosa
TTITLE2=It Ain't No Big Thing
TTITLE3=Last Mile of the Way
TTITLE4=Bootlegger King
TTITLE5=Daddy
TTITLE6=Love Is
TTITLE7=1460 Elder Street
TTITLE8=Does Steppin' Out Mean Daddy Took a Walk
TTITLE9=18 Wheels Hummin' Home Sweet Home
TTITLE10=Sad Violins
EXTD=
EXTT0=
EXTT1=
EXTT2=
EXTT3=
EXTT4=
EXTT5=
EXTT6=
EXTT7=
EXTT8=
EXTT9=
EXTT10=
PLAYORDER=
